<?xml version="1.0" encoding="UTF-8"?>
<svg width="700pt" height="700pt" version="1.1" viewBox="0 0 700 700" xmlns="http://www.w3.org/2000/svg" xmlns:xlink="http://www.w3.org/1999/xlink">
 <defs>
  <symbol id="v" overflow="visible">
   <path d="m26.969-1.6094c-1.3984 0.71875-2.8516 1.2617-4.3594 1.625-1.5 0.36328-3.0703 0.54688-4.7031 0.54688-4.8867 0-8.7617-1.3633-11.625-4.0938-2.8555-2.7266-4.2812-6.4297-4.2812-11.109 0-4.6875 1.4258-8.3945 4.2812-11.125 2.8633-2.7383 6.7383-4.1094 11.625-4.1094 1.6328 0 3.2031 0.1875 4.7031 0.5625 1.5078 0.36719 2.9609 0.90625 4.3594 1.625v6.0625c-1.4062-0.94531-2.793-1.6445-4.1562-2.0938-1.3555-0.44531-2.7891-0.67188-4.2969-0.67188-2.6992 0-4.8242 0.86719-6.375 2.5938-1.543 1.7305-2.3125 4.1172-2.3125 7.1562 0 3.0234 0.76953 5.4023 2.3125 7.1406 1.5508 1.7305 3.6758 2.5938 6.375 2.5938 1.5078 0 2.9414-0.22266 4.2969-0.67188 1.3633-0.44531 2.75-1.1484 4.1562-2.1094z"/>
  </symbol>
  <symbol id="b" overflow="visible">
   <path d="m19.734-16.016c-0.61719-0.28906-1.2305-0.50391-1.8438-0.64062-0.60547-0.13281-1.2148-0.20312-1.8281-0.20312-1.8125 0-3.2109 0.57812-4.1875 1.7344-0.96875 1.1562-1.4531 2.8203-1.4531 4.9844v10.141h-7.0469v-22.016h7.0469v3.625c0.89453-1.4453 1.9297-2.5 3.1094-3.1562 1.1758-0.66406 2.582-1 4.2188-1 0.22656 0 0.47656 0.011719 0.75 0.03125 0.28125 0.023437 0.6875 0.0625 1.2188 0.125z"/>
  </symbol>
  <symbol id="c" overflow="visible">
   <path d="m25.359-11.062v2h-16.453c0.16406 1.6562 0.75781 2.8984 1.7812 3.7188 1.0195 0.82422 2.4453 1.2344 4.2812 1.2344 1.4883 0 3.0078-0.21875 4.5625-0.65625 1.5508-0.4375 3.1445-1.1016 4.7812-2v5.4219c-1.668 0.63672-3.3359 1.1094-5 1.4219-1.6562 0.32031-3.3203 0.48438-4.9844 0.48438-3.9805 0-7.0742-1.0078-9.2812-3.0312-2.2109-2.0195-3.3125-4.8594-3.3125-8.5156 0-3.5938 1.082-6.4141 3.25-8.4688 2.1641-2.0625 5.1484-3.0938 8.9531-3.0938 3.457 0 6.2227 1.043 8.2969 3.125 2.082 2.0859 3.125 4.8711 3.125 8.3594zm-7.2344-2.3438c0-1.332-0.39062-2.4062-1.1719-3.2188-0.78125-0.82031-1.8047-1.2344-3.0625-1.2344-1.3672 0-2.4766 0.38672-3.3281 1.1562-0.84375 0.76172-1.3711 1.8594-1.5781 3.2969z"/>
  </symbol>
  <symbol id="i" overflow="visible">
   <path d="m13.25-9.9062c-1.4688 0-2.5742 0.25-3.3125 0.75-0.74219 0.5-1.1094 1.2344-1.1094 2.2031 0 0.88672 0.29688 1.5859 0.89062 2.0938 0.59375 0.5 1.4219 0.75 2.4844 0.75 1.3203 0 2.4375-0.47266 3.3438-1.4219 0.90625-0.94531 1.3594-2.1328 1.3594-3.5625v-0.8125zm10.75-2.6562v12.562h-7.0938v-3.2656c-0.94922 1.3359-2.0117 2.3086-3.1875 2.9219-1.1797 0.60156-2.6172 0.90625-4.3125 0.90625-2.2734 0-4.1211-0.66016-5.5469-1.9844-1.418-1.332-2.125-3.0625-2.125-5.1875 0-2.5703 0.88281-4.4609 2.6562-5.6719 1.7812-1.207 4.5664-1.8125 8.3594-1.8125h4.1562v-0.54688c0-1.1133-0.44531-1.9258-1.3281-2.4375-0.875-0.51953-2.2422-0.78125-4.0938-0.78125-1.5117 0-2.918 0.15234-4.2188 0.45312-1.293 0.30469-2.4961 0.75-3.6094 1.3438v-5.3594c1.5078-0.36328 3.0195-0.64062 4.5312-0.82812 1.5195-0.19531 3.0391-0.29688 4.5625-0.29688 3.9688 0 6.832 0.78906 8.5938 2.3594 1.7695 1.5625 2.6562 4.1055 2.6562 7.625z"/>
  </symbol>
  <symbol id="d" overflow="visible">
   <path d="m11.062-28.266v6.25h7.25v5.0312h-7.25v9.3438c0 1.0234 0.20312 1.7148 0.60938 2.0781 0.40625 0.35547 1.2109 0.53125 2.4219 0.53125h3.6094v5.0312h-6.0312c-2.7812 0-4.75-0.57812-5.9062-1.7344-1.1562-1.1641-1.7344-3.1328-1.7344-5.9062v-9.3438h-3.5v-5.0312h3.5v-6.25z"/>
  </symbol>
  <symbol id="l" overflow="visible">
   <path d="m18.359-18.781v-11.797h7.0781v30.578h-7.0781v-3.1875c-0.96875 1.3047-2.0391 2.2578-3.2031 2.8594-1.168 0.59375-2.5156 0.89062-4.0469 0.89062-2.7188 0-4.9492-1.0703-6.6875-3.2188-1.7422-2.1562-2.6094-4.9297-2.6094-8.3281 0-3.3945 0.86719-6.1719 2.6094-8.3281 1.7383-2.1562 3.9688-3.2344 6.6875-3.2344 1.5195 0 2.8633 0.30859 4.0312 0.92188 1.1758 0.60547 2.25 1.5547 3.2188 2.8438zm-4.6406 14.234c1.5078 0 2.6602-0.54688 3.4531-1.6406 0.78906-1.1016 1.1875-2.7031 1.1875-4.7969s-0.39844-3.6914-1.1875-4.7969c-0.79297-1.1016-1.9453-1.6562-3.4531-1.6562-1.4922 0-2.6367 0.55469-3.4375 1.6562-0.79297 1.1055-1.1875 2.7031-1.1875 4.7969s0.39453 3.6953 1.1875 4.7969c0.80078 1.0938 1.9453 1.6406 3.4375 1.6406z"/>
  </symbol>
  <symbol id="h" overflow="visible">
   <path d="m15.094-4.5469c1.5078 0 2.6602-0.54688 3.4531-1.6406 0.78906-1.1016 1.1875-2.7031 1.1875-4.7969s-0.39844-3.6914-1.1875-4.7969c-0.79297-1.1016-1.9453-1.6562-3.4531-1.6562-1.5117 0-2.668 0.55859-3.4688 1.6719-0.80469 1.1055-1.2031 2.6992-1.2031 4.7812 0 2.0859 0.39844 3.6797 1.2031 4.7812 0.80078 1.1055 1.957 1.6562 3.4688 1.6562zm-4.6719-14.234c0.96875-1.2891 2.0391-2.2383 3.2188-2.8438 1.1758-0.61328 2.5312-0.92188 4.0625-0.92188 2.7188 0 4.9453 1.0781 6.6875 3.2344 1.7383 2.1562 2.6094 4.9336 2.6094 8.3281 0 3.3984-0.87109 6.1719-2.6094 8.3281-1.7422 2.1484-3.9688 3.2188-6.6875 3.2188-1.5312 0-2.8867-0.30469-4.0625-0.90625-1.1797-0.61328-2.25-1.5625-3.2188-2.8438v3.1875h-7.0469v-30.578h7.0469z"/>
  </symbol>
  <symbol id="k" overflow="visible">
   <path d="m0.48438-22.016h7.0469l5.9062 14.938 5.0312-14.938h7.0469l-9.2656 24.094c-0.92969 2.457-2.0117 4.1719-3.25 5.1406-1.2422 0.97656-2.875 1.4688-4.9062 1.4688h-4.0625v-4.625h2.2031c1.1875 0 2.0508-0.19531 2.5938-0.57812 0.55078-0.375 0.97656-1.0547 1.2812-2.0312l0.1875-0.60938z"/>
  </symbol>
  <symbol id="g" overflow="visible">
   <path d="m3.6875-29.344h8.4531l10.672 20.125v-20.125h7.1719v29.344h-8.4375l-10.672-20.125v20.125h-7.1875z"/>
  </symbol>
  <symbol id="u" overflow="visible">
   <path d="m3.375-22.016h7.0469v22.016h-7.0469zm0-8.5625h7.0469v5.7344h-7.0469z"/>
  </symbol>
  <symbol id="j" overflow="visible">
   <path d="m21.172-21.328v5.75c-0.96094-0.65625-1.9219-1.1406-2.8906-1.4531-0.96094-0.32031-1.9531-0.48438-2.9844-0.48438-1.9688 0-3.5 0.57422-4.5938 1.7188-1.0938 1.1484-1.6406 2.75-1.6406 4.8125 0 2.0547 0.54688 3.6523 1.6406 4.7969 1.0938 1.1484 2.625 1.7188 4.5938 1.7188 1.0938 0 2.1328-0.16016 3.125-0.48438 0.98828-0.32031 1.9062-0.80469 2.75-1.4531v5.75c-1.1055 0.40625-2.2266 0.70703-3.3594 0.90625-1.1367 0.20703-2.2734 0.3125-3.4062 0.3125-3.9688 0-7.0742-1.0156-9.3125-3.0469-2.2422-2.0391-3.3594-4.875-3.3594-8.5 0-3.6328 1.1172-6.4688 3.3594-8.5 2.2383-2.0391 5.3438-3.0625 9.3125-3.0625 1.1562 0 2.2891 0.10547 3.4062 0.3125 1.125 0.19922 2.2422 0.5 3.3594 0.90625z"/>
  </symbol>
  <symbol id="a" overflow="visible">
   <path d="m13.859-17.516c-1.5625 0-2.7578 0.5625-3.5781 1.6875-0.8125 1.1172-1.2188 2.7305-1.2188 4.8438 0 2.1055 0.40625 3.7188 1.2188 4.8438 0.82031 1.1172 2.0156 1.6719 3.5781 1.6719 1.5312 0 2.7031-0.55469 3.5156-1.6719 0.8125-1.125 1.2188-2.7383 1.2188-4.8438 0-2.1133-0.40625-3.7266-1.2188-4.8438-0.8125-1.125-1.9844-1.6875-3.5156-1.6875zm0-5.0312c3.7812 0 6.7344 1.0273 8.8594 3.0781 2.1328 2.043 3.2031 4.8711 3.2031 8.4844 0 3.6172-1.0703 6.4453-3.2031 8.4844-2.125 2.043-5.0781 3.0625-8.8594 3.0625-3.8047 0-6.7773-1.0195-8.9219-3.0625-2.1367-2.0391-3.2031-4.8672-3.2031-8.4844 0-3.6133 1.0664-6.4414 3.2031-8.4844 2.1445-2.0508 5.1172-3.0781 8.9219-3.0781z"/>
  </symbol>
  <symbol id="t" overflow="visible">
   <path d="m3.375-30.578h7.0469v30.578h-7.0469z"/>
  </symbol>
  <symbol id="f" overflow="visible">
   <path d="m20.578-21.328v5.3438c-1.5117-0.625-2.9688-1.0938-4.375-1.4062-1.3984-0.3125-2.7148-0.46875-3.9531-0.46875-1.3438 0-2.3398 0.16797-2.9844 0.5-0.64844 0.33594-0.96875 0.84375-0.96875 1.5312 0 0.57422 0.24219 1.0117 0.73438 1.3125 0.48828 0.29297 1.3672 0.51172 2.6406 0.65625l1.2344 0.1875c3.6016 0.46094 6.0234 1.2148 7.2656 2.2656 1.25 1.043 1.875 2.6836 1.875 4.9219 0 2.3438-0.86719 4.1055-2.5938 5.2812-1.7305 1.1797-4.3086 1.7656-7.7344 1.7656-1.4609 0-2.9648-0.11719-4.5156-0.34375-1.5547-0.22656-3.1484-0.57031-4.7812-1.0312v-5.3438c1.3945 0.6875 2.8281 1.2031 4.2969 1.5469 1.4766 0.33594 2.9766 0.5 4.5 0.5 1.375 0 2.4102-0.1875 3.1094-0.5625 0.69531-0.38281 1.0469-0.95312 1.0469-1.7031 0-0.625-0.24219-1.0859-0.71875-1.3906-0.48047-0.3125-1.4336-0.55078-2.8594-0.71875l-1.25-0.15625c-3.125-0.39453-5.3203-1.125-6.5781-2.1875-1.2617-1.0625-1.8906-2.6719-1.8906-4.8281 0-2.332 0.79688-4.0625 2.3906-5.1875 1.6016-1.1328 4.0547-1.7031 7.3594-1.7031 1.3008 0 2.6641 0.10156 4.0938 0.29688 1.4258 0.19922 2.9766 0.50781 4.6562 0.92188z"/>
  </symbol>
  <symbol id="s" overflow="visible">
   <path d="m21.5-5.3438h-11.828l-1.875 5.3438h-7.5938l10.859-29.344h9.0156l10.875 29.344h-7.6094zm-9.9375-5.4531h8.0312l-4.0156-11.672z"/>
  </symbol>
  <symbol id="e" overflow="visible">
   <path d="m3.1406-8.5625v-13.453h7.0781v2.2031c0 1.1992-0.007812 2.6992-0.015625 4.5-0.011719 1.793-0.015625 2.9922-0.015625 3.5938 0 1.7734 0.039062 3.0469 0.125 3.8281 0.09375 0.78125 0.25391 1.3516 0.48438 1.7031 0.28125 0.46094 0.65625 0.8125 1.125 1.0625s1 0.375 1.5938 0.375c1.4688 0 2.6172-0.5625 3.4531-1.6875 0.84375-1.1328 1.2656-2.7031 1.2656-4.7031v-10.875h7.0469v22.016h-7.0469v-3.1875c-1.0625 1.2812-2.1875 2.2305-3.375 2.8438-1.1797 0.60156-2.4805 0.90625-3.9062 0.90625-2.543 0-4.4805-0.77344-5.8125-2.3281-1.3359-1.5625-2-3.8281-2-6.7969z"/>
  </symbol>
  <symbol id="r" overflow="visible">
   <path d="m17.859-30.578v4.6094h-3.8906c-0.99219 0-1.6836 0.18359-2.0781 0.54688-0.39844 0.36719-0.59375 0.99219-0.59375 1.875v1.5312h6.0156v5.0312h-6.0156v16.984h-7.0312v-16.984h-3.5v-5.0312h3.5v-1.5312c0-2.3945 0.66406-4.1641 2-5.3125 1.3438-1.1445 3.4141-1.7188 6.2188-1.7188z"/>
  </symbol>
  <symbol id="q" overflow="visible">
   <path d="m23.781-18.359c0.88281-1.3633 1.9414-2.3984 3.1719-3.1094 1.2266-0.71875 2.5781-1.0781 4.0469-1.0781 2.5195 0 4.4414 0.78125 5.7656 2.3438 1.3203 1.5625 1.9844 3.8281 1.9844 6.7969v13.406h-7.0625v-11.484c0.007812-0.16406 0.015625-0.33594 0.015625-0.51562 0.007813-0.1875 0.015625-0.45312 0.015625-0.79688 0-1.5625-0.23047-2.6914-0.6875-3.3906-0.46094-0.69531-1.1992-1.0469-2.2188-1.0469-1.3359 0-2.3672 0.55469-3.0938 1.6562-0.73047 1.0938-1.1055 2.6836-1.125 4.7656v10.812h-7.0781v-11.484c0-2.4375-0.21484-4.0039-0.64062-4.7031-0.41797-0.69531-1.1641-1.0469-2.2344-1.0469-1.3438 0-2.3867 0.55469-3.125 1.6562-0.73047 1.1055-1.0938 2.6875-1.0938 4.75v10.828h-7.0781v-22.016h7.0781v3.2344c0.86328-1.25 1.8516-2.1875 2.9688-2.8125 1.125-0.63281 2.3594-0.95312 3.7031-0.95312 1.5195 0 2.8633 0.37109 4.0312 1.1094 1.1641 0.73047 2.0508 1.7578 2.6562 3.0781z"/>
  </symbol>
  <symbol id="p" overflow="visible">
   <path d="m25.516-13.406v13.406h-7.0781v-10.219c0-1.9258-0.046875-3.25-0.14062-3.9688-0.085937-0.71875-0.23047-1.25-0.4375-1.5938-0.27344-0.45703-0.64844-0.8125-1.125-1.0625-0.46875-0.25781-1-0.39062-1.5938-0.39062-1.4688 0-2.625 0.57031-3.4688 1.7031-0.83594 1.125-1.25 2.6953-1.25 4.7031v10.828h-7.0469v-30.578h7.0469v11.797c1.0625-1.2891 2.1875-2.2383 3.375-2.8438 1.1875-0.61328 2.5039-0.92188 3.9531-0.92188 2.5391 0 4.4688 0.78125 5.7812 2.3438 1.3203 1.5625 1.9844 3.8281 1.9844 6.7969z"/>
  </symbol>
  <symbol id="o" overflow="visible">
   <path d="m25.516-13.406v13.406h-7.0781v-10.266c0-1.8945-0.046875-3.2031-0.14062-3.9219-0.085937-0.71875-0.23047-1.25-0.4375-1.5938-0.27344-0.45703-0.64844-0.8125-1.125-1.0625-0.46875-0.25781-1-0.39062-1.5938-0.39062-1.4688 0-2.625 0.57031-3.4688 1.7031-0.83594 1.125-1.25 2.6953-1.25 4.7031v10.828h-7.0469v-22.016h7.0469v3.2344c1.0625-1.2891 2.1875-2.2383 3.375-2.8438 1.1875-0.61328 2.5039-0.92188 3.9531-0.92188 2.5391 0 4.4688 0.78125 5.7812 2.3438 1.3203 1.5625 1.9844 3.8281 1.9844 6.7969z"/>
  </symbol>
  <symbol id="n" overflow="visible">
   <path d="m3.6875-29.344h12.562c3.7383 0 6.6016 0.82812 8.5938 2.4844 2 1.6562 3 4.0234 3 7.0938 0 3.0742-1 5.4375-3 7.0938-1.9922 1.6562-4.8555 2.4844-8.5938 2.4844h-4.9844v10.188h-7.5781zm7.5781 5.4844v8.2031h4.1875c1.4688 0 2.5977-0.35938 3.3906-1.0781 0.80078-0.71875 1.2031-1.7266 1.2031-3.0312 0-1.3125-0.40234-2.3203-1.2031-3.0312-0.79297-0.70703-1.9219-1.0625-3.3906-1.0625z"/>
  </symbol>
  <symbol id="m" overflow="visible">
   <path d="m3.375-22.016h7.0469v21.625c0 2.9453-0.71094 5.1953-2.125 6.75-1.418 1.5508-3.4688 2.3281-6.1562 2.3281h-3.4844v-4.625h1.2188c1.3438 0 2.2578-0.30469 2.75-0.90625 0.5-0.59375 0.75-1.7773 0.75-3.5469zm0-8.5625h7.0469v5.7344h-7.0469z"/>
  </symbol>
 </defs>
 <path transform="matrix(8.0497 0 0 8.0497 -54.979 -62.606)" d="m6.9998 53.13 1.1001-1.1899s0.80021-0.56 1.0802 0v-4.85e-4c0.55224 1.2306 0.90988 2.5399 1.0598 3.8802 0 0 0.16984 1.0501-0.34988 1.0001-0.52021-0.049982-2.4001 0-2.4001 0" fill="none" stroke="#000" stroke-linecap="round" stroke-linejoin="round" stroke-width=".1"/>
 <path transform="matrix(8.0497 0 0 8.0497 0 215.67)" d="m76.04 19.5c0 3.9045-3.1654 7.0699-7.0699 7.0699-3.905 0-7.0704-3.1654-7.0704-7.0699 0-3.905 3.1654-7.0704 7.0704-7.0704 3.9045 0 7.0699 3.1654 7.0699 7.0704" fill="none" stroke="#000" stroke-linecap="round" stroke-linejoin="round" stroke-width=".25"/>
 <path transform="matrix(8.0497 0 0 8.0497 -54.979 -62.606)" d="m39.9 42.52h4.5198s5.9402-5.0002 7.1-5.5c0 0 0.46003-0.11986 0.13005-0.31009v4.85e-4c-0.38191-0.21546-0.79778-0.36395-1.2297-0.44014" fill="none" stroke="#000" stroke-linecap="round" stroke-linejoin="round" stroke-width=".1"/>
 <path transform="matrix(8.0497 0 0 8.0497 -54.979 -62.606)" d="m67.9 52.52c0.21983-2.8582 1.9474-5.3821 4.5324-6.621 2.5855-1.2389 5.6349-1.004 8.0001 0.61532 2.3652 1.6193 3.6871 4.3776 3.4677 7.2353v0.089774" fill="none" stroke="#000" stroke-linecap="round" stroke-linejoin="round" stroke-width=".25"/>
 <path transform="matrix(8.0497 0 0 8.0497 -54.979 -62.606)" d="m67.92 52.46s-0.49983 1.0001-0.42024 5.42h-38.58s-0.24021-2.6898-0.31979-3.87" fill="none" stroke="#000" stroke-linecap="round" stroke-linejoin="round" stroke-width=".25"/>
 <path transform="matrix(8.0497 0 0 8.0497 -54.979 -62.606)" d="m12.94 54.12v-0.14995c0-2.058 0.81768-4.0321 2.273-5.4874 1.4553-1.4553 3.4289-2.2725 5.4869-2.2725 2.0745 0.002426 4.0651 0.82059 5.5413 2.2783 1.4762 1.4573 2.3201 3.4372 2.3487 5.5117" fill="none" stroke="#000" stroke-linecap="round" stroke-linejoin="round" stroke-width=".25"/>
 <path transform="matrix(8.0497 0 0 8.0497 -54.979 -62.606)" d="m6.9998 53.13s0.8201 0 0 2.9999" fill="none" stroke="#000" stroke-linecap="round" stroke-linejoin="round" stroke-width=".25"/>
 <path transform="matrix(8.0497 0 0 8.0497 -54.979 -62.606)" d="m83.88 53.75v2.0799h1.3602c1.5601-0.47022 5.14-1.9998 5.14-1.9998 1.3398-0.67016 2.9999-4.2 3.2299-4.5901v4.86e-4c0.004852-0.023293 0.004852-0.047071 0-0.070364v-2.5098c0.002911-0.019896 0.002911-0.040277 0-0.060173-0.53671-1.5878-1.5936-2.948-2.9999-3.8598-0.032513-0.011647-0.067453-0.011647-0.099965 0-0.26302 0.003396-0.52506-0.02669-0.78031-0.09026-1.2898-0.21012-7.46-2.3298-7.46-2.3298s1.2699 0.42024-5.7902-2.3298-10.83-2.9999-10.83-2.9999l4.85e-4 -4.85e-4c-2.0148-0.26447-4.051-0.33484-6.0799-0.20964-2.8898 0.019411-5.7669 0.3853-8.5698 1.0899-3.7759 1.9653-7.4324 4.1524-10.95 6.5497-0.029602 0.008735-0.060659 0.008735-0.089775 0l-9.6098 0.11986-4.86e-4 4.85e-4c-4.4562 0.093172-8.8988 0.52458-13.29 1.2898-7.2698 1.3199-10.06 3.8802-10.06 4.25v1.6198 3.41" fill="none" stroke="#000" stroke-linecap="round" stroke-linejoin="round" stroke-width=".25"/>
 <path transform="matrix(8.0497 0 0 8.0497 -54.979 -62.606)" d="m12.94 54c-0.047557 1.1598-0.027661 2.322 0.060173 3.4799 0.005338 0.046585-0.008735 0.093656-0.038822 0.12957-0.030572 0.03591-0.074246 0.057747-0.12132 0.060173-0.92007 0-5.0002 0-5.8601-1.25-0.010191-0.035909-0.010191-0.07376 0-0.10967v-0.21012" fill="none" stroke="#000" stroke-linecap="round" stroke-linejoin="round" stroke-width=".25"/>
 <path transform="matrix(8.0497 0 0 8.0497 -54.979 -62.606)" d="m51 39.35s1.2602 0.42995 0.47993 2.52c-1.1612 0.059203-2.3254 0.019411-3.4799-0.11986v-1.25s0.74003-1.2098 1.3801-1.2302c0.54059-4.85e-4 1.0817 0.02669 1.6198 0.080069zm0 0" fill="none" stroke="#000" stroke-linecap="round" stroke-linejoin="round" stroke-width=".1"/>
 <path transform="matrix(8.0497 0 0 8.0497 -54.979 -62.606)" d="m50.65 39.29c1.4694-1.2006 3.2154-2.0153 5.0798-2.37 3.7443-0.48721 7.5391-0.44014 11.27 0.14024 3.7099 0.77012 7.89 2.2701 8.5402 2.7898 0 0-0.42024 1.7198-8.0001 1.8799l-20.83 0.62988v4.85e-4c0.3984-0.42364 0.82981-0.81525 1.2903-1.17" fill="none" stroke="#000" stroke-linecap="round" stroke-linejoin="round" stroke-width=".1"/>
 <path transform="matrix(8.0497 0 0 8.0497 -54.979 -62.606)" d="m44.42 42.52s-3.5701 0.2601-3.64 3.26c-0.069879 2.9999 0 8.7499 0 8.7499s0.28 0.67016 0.69005 0.69005c0.41005 0.019896 13.94-0.49983 13.94-0.49983l6.44-0.49983h4.85e-4c1.1443-0.17324 2.1148-0.93171 2.5598-2.0003 0.75653-1.4034 1.4247-2.8529 2.0003-4.3398 0.11016-0.2999 0.21012-0.59979 0.29019-0.87979 0 0 0.39016-1.3398 0.41005-1.53v-1.9998s-0.16984-1.3699-2.8398-1.6198h-0.47022" fill="none" stroke="#000" stroke-linecap="round" stroke-linejoin="round" stroke-width=".1"/>
 <path transform="matrix(8.0497 0 0 8.0497 -54.979 -62.606)" d="m92.1 44h-6.4002s-0.60998 0.069879-0.32998 0.42024h4.85e-4c0.41054 0.41151 0.84825 0.79584 1.3097 1.1501 0.37463 0.29601 0.84291 0.44887 1.3199 0.42995h4.2704c0.34745-0.060658 0.68423-0.17178 0.99965-0.32998" fill="none" stroke="#000" stroke-linecap="round" stroke-linejoin="round" stroke-width=".1"/>
 <path transform="matrix(8.0497 0 0 8.0497 0 215.67)" d="m20.91 19.5c0 3.9045-3.1654 7.0699-7.0704 7.0699-3.9045 0-7.0699-3.1654-7.0699-7.0699 0-3.905 3.1654-7.0704 7.0699-7.0704 3.905 0 7.0704 3.1654 7.0704 7.0704" fill="none" stroke="#000" stroke-linecap="round" stroke-linejoin="round" stroke-width=".25"/>
 <path transform="matrix(8.0497 0 0 8.0497 -54.979 -62.606)" d="m8.6599 50.14v-1.4801c0.91861-1.7654 2.653-2.9601 4.6299-3.1897h1.7101s-3.49 4.53-6.34 4.6697zm0 0" fill="none" stroke="#000" stroke-linecap="round" stroke-linejoin="round" stroke-width=".1"/>
 <path transform="matrix(8.0497 0 0 8.0497 -54.979 -62.606)" d="m51.35 45.56-18.35 0.5401s-1.5902 0.049983-1.17 1.25c0.53185 1.0239 1.2709 1.9265 2.1701 2.65 0.16305 0.041733 0.33144 0.061629 0.49983 0.059688l12.58-0.14995" fill="none" stroke="#000" stroke-linecap="round" stroke-linejoin="round" stroke-width=".1"/>
 <path transform="matrix(8.0497 0 0 8.0497 -54.979 -62.606)" d="m39.44 46.27-6.0998 0.13005s-1.1802 0.28-0.69005 1.0001c0.43917 0.62794 0.92055 1.2263 1.4398 1.7897 0.26302 0.14218 0.55224 0.2271 0.85019 0.2504h3.6298s0.90988-0.049983 0.92007-0.42024l0.099965-2.4001s0.030086-0.24991-0.14995-0.34988zm0 0" fill="none" stroke="#000" stroke-linecap="round" stroke-linejoin="round" stroke-width=".1"/>
 <path transform="matrix(8.0497 0 0 8.0497 -54.979 -62.606)" d="m29.63 54.58s30.69-0.52021 36-2.42" fill="none" stroke="#000" stroke-linecap="round" stroke-linejoin="round" stroke-width=".1"/>
 <path transform="matrix(8.0497 0 0 8.0497 -54.979 -62.606)" d="m70.64 47.64c-1.4073 0.16451-2.8228 0.25477-4.2398 0.27029" fill="none" stroke="#000" stroke-linecap="round" stroke-linejoin="round" stroke-width=".1"/>
 <path transform="matrix(8.0497 0 0 8.0497 -54.979 -62.606)" d="m80.25 47.08s6.7501-0.34988 6.44-1.4699" fill="none" stroke="#000" stroke-linecap="round" stroke-linejoin="round" stroke-width=".1"/>
 <g>
  <use y="551.34375" xlink:href="#v"/>
  <use x="29.539062" y="551.34375" xlink:href="#b"/>
  <use x="49.386719" y="551.34375" xlink:href="#c"/>
  <use x="76.683594" y="551.34375" xlink:href="#i"/>
  <use x="103.84375" y="551.34375" xlink:href="#d"/>
  <use x="123.082031" y="551.34375" xlink:href="#c"/>
  <use x="150.382812" y="551.34375" xlink:href="#l"/>
  <use x="193.203125" y="551.34375" xlink:href="#h"/>
  <use x="222.015625" y="551.34375" xlink:href="#k"/>
  <use x="262.261719" y="551.34375" xlink:href="#g"/>
  <use x="295.949219" y="551.34375" xlink:href="#u"/>
  <use x="309.742188" y="551.34375" xlink:href="#j"/>
  <use x="333.601562" y="551.34375" xlink:href="#a"/>
  <use x="361.253906" y="551.34375" xlink:href="#t"/>
  <use x="375.050781" y="551.34375" xlink:href="#i"/>
  <use x="402.207031" y="551.34375" xlink:href="#f"/>
  <use x="440.175781" y="551.34375" xlink:href="#s"/>
  <use x="471.328125" y="551.34375" xlink:href="#h"/>
  <use x="500.136719" y="551.34375" xlink:href="#a"/>
  <use x="527.789062" y="551.34375" xlink:href="#e"/>
  <use x="556.441406" y="551.34375" xlink:href="#b"/>
  <use x="576.289062" y="551.34375" xlink:href="#b"/>
  <use x="596.140625" y="551.34375" xlink:href="#a"/>
  <use x="623.792969" y="551.34375" xlink:href="#e"/>
  <use x="652.445312" y="551.34375" xlink:href="#f"/>
  <use x="676.402344" y="551.34375" xlink:href="#f"/>
  <use y="591.589844" xlink:href="#r"/>
  <use x="17.511719" y="591.589844" xlink:href="#b"/>
  <use x="37.359375" y="591.589844" xlink:href="#a"/>
  <use x="65.011719" y="591.589844" xlink:href="#q"/>
  <use x="120.960938" y="591.589844" xlink:href="#d"/>
  <use x="140.203125" y="591.589844" xlink:href="#p"/>
  <use x="168.855469" y="591.589844" xlink:href="#c"/>
  <use x="210.164062" y="591.589844" xlink:href="#g"/>
  <use x="243.847656" y="591.589844" xlink:href="#a"/>
  <use x="271.5" y="591.589844" xlink:href="#e"/>
  <use x="300.152344" y="591.589844" xlink:href="#o"/>
  <use x="342.820312" y="591.589844" xlink:href="#n"/>
  <use x="372.316406" y="591.589844" xlink:href="#b"/>
  <use x="392.167969" y="591.589844" xlink:href="#a"/>
  <use x="419.816406" y="591.589844" xlink:href="#m"/>
  <use x="433.613281" y="591.589844" xlink:href="#c"/>
  <use x="460.910156" y="591.589844" xlink:href="#j"/>
  <use x="484.769531" y="591.589844" xlink:href="#d"/>
 </g>
</svg>
